<svg version="1.1" xmlns="http://www.w3.org/2000/svg" xmlns:xlink="http://www.w3.org/1999/xlink"
	viewBox="0 0 122.6 29.1" xml:space="preserve">
	<g fill="currentColor">
		<path d="M12.4,3.7h4.3v14.4l8.1-14.4h4.3v21.3h-3.9V10.7l-8.1,14.4h-4.3V10.7L4.8,25.1H0.4L12.4,3.7z" />
		<path d="M49.2,16.9c0,4.6-3.8,8.4-8.4,8.4s-8.4-3.8-8.4-8.4c0-4.6,3.8-8.4,8.4-8.4S49.2,12.3,49.2,16.9z M35.8,16.9
		c0,2.8,2.2,5,5,5s5-2.2,5-5c0-2.8-2.2-5-5-5S35.8,14.1,35.8,16.9z" />
		<path d="M52.4,8.9h3.7v1.6c1.3-1.5,3.5-1.9,5.2-1.8V12c-1.9-0.2-5.1,0.5-5.2,3.4v9.7h-3.7V8.9z" />
		<path d="M73.8,3.7h4.3v14.4l8.1-14.4h4.3v21.3h-3.9V10.7l-8.1,14.4h-4.3V10.7l-8.1,14.4h-4.3L73.8,3.7z" />
		<path d="M109.6,16.9c0,4.6-3.8,8.4-8.4,8.4s-8.4-3.8-8.4-8.4c0-4.6,3.8-8.4,8.4-8.4S109.6,12.3,109.6,16.9z M96.2,16.9
		c0,2.8,2.2,5,5,5s5-2.2,5-5c0-2.8-2.2-5-5-5S96.2,14.1,96.2,16.9z" />
		<path d="M112.8,8.9h3.7v1.6c1.3-1.5,3.6-1.9,5.2-1.8V12c-1.9-0.2-5.1,0.5-5.2,3.4v9.7h-3.7V8.9z" />
	</g>
</svg>